<?xml version="1.0" standalone="no"?>
<!DOCTYPE svg PUBLIC "-//W3C//DTD SVG 20010904//EN"
 "http://www.w3.org/TR/2001/REC-SVG-20010904/DTD/svg10.dtd">
<svg version="1.0" xmlns="http://www.w3.org/2000/svg"
 width="100.000000pt" height="100.000000pt" viewBox="0 0 100.000000 100.000000"
 preserveAspectRatio="xMidYMid meet">
<metadata>
Created by potrace 1.11, written by Peter Selinger 2001-2013
</metadata>
<g transform="translate(0.000000,100.000000) scale(0.100000,-0.100000)"
fill="#000000" stroke="none">
<path d="M99 721 c-4 -18 -4 -328 -1 -338 3 -9 27 -13 73 -13 l68 0 3 -53 3
-52 248 0 249 0 19 24 c10 13 19 36 19 52 0 28 1 29 54 29 l55 0 -2 143 -2
142 -90 0 -90 0 3 -52 3 -53 -56 0 -55 0 0 -55 0 -55 -35 0 c-29 0 -35 4 -35
20 0 34 -29 79 -53 85 -12 3 -62 6 -111 8 l-89 2 -1 85 -1 85 -87 1 c-49 1
-89 -2 -89 -5z"/>
<path d="M710 711 c0 -17 9 -18 90 -18 76 1 90 4 88 17 -3 12 -21 15 -91 17
-78 2 -87 0 -87 -16z"/>
</g>
</svg>
